Coordinates
version=1
nRows=17
nColumns=40
inDegrees=yes

Units are S.I. units (second, meters, Newtons, ...)
Angles are in degrees.

endheader
time	pelvis_tilt	pelvis_list	pelvis_rotation	pelvis_tx	pelvis_ty	pelvis_tz	hip_flexion_r	hip_adduction_r	hip_rotation_r	knee_angle_r	knee_angle_r_beta	ankle_angle_r	subtalar_angle_r	mtp_angle_r	hip_flexion_l	hip_adduction_l	hip_rotation_l	knee_angle_l	knee_angle_l_beta	ankle_angle_l	subtalar_angle_l	mtp_angle_l	lumbar_extension	lumbar_bending	lumbar_rotation	arm_flex_r	arm_add_r	arm_rot_r	elbow_flex_r	pro_sup_r	wrist_flex_r	wrist_dev_r	arm_flex_l	arm_add_l	arm_rot_l	elbow_flex_l	pro_sup_l	wrist_flex_l	wrist_dev_l
     44.88500000	     -4.23968901	     -4.69178293	     -2.23585503	      0.97860060	      0.92531194	      0.47453469	     20.18927309	      2.31693308	    -10.76818599	     18.78143620	     18.78143620	      5.19004140	     -0.78595615	     -4.20693851	      6.87205078	     -9.29756181	     -6.69667283	     38.83487950	     38.83487950	     12.90673266	    -12.64732481	    -10.41277681	     -8.58286868	      6.57798235	      0.91106142	     -6.13818266	    -13.71005746	     -5.47176774	     31.19259809	     46.33713729	      0.00000000	      0.00000000	     12.49664418	    -14.03283935	    -13.72050971	     64.22867701	     47.49521648	      0.00000000	      0.00000000
     44.89800000	     -4.13347071	     -4.77259025	     -1.89060699	      0.97882361	      0.92574901	      0.47646833	     19.57346175	      2.43533960	    -11.14449259	     18.76464801	     18.76464801	      5.55083265	     -0.73664537	     -4.52208872	      8.70176582	     -9.76741249	     -5.69525870	     42.70691672	     42.70691672	     10.68112992	    -14.22012626	    -11.17972530	     -8.62153974	      6.69198052	      0.82770692	     -4.37339199	    -13.79480998	     -4.97146958	     32.11348113	     46.27361615	      0.00000000	      0.00000000	     11.87842961	    -13.66633907	    -13.23384537	     62.11585909	     47.42049336	      0.00000000	      0.00000000
     44.91100000	     -3.96167645	     -4.93775979	     -1.53452708	      0.97885524	      0.92611794	      0.47835213	     18.88070645	      2.65398117	    -11.49401779	     18.71270176	     18.71270176	      5.86222826	     -0.68753109	     -5.01364439	     10.54487014	    -10.28426944	     -4.62789377	     46.56724220	     46.56724220	      8.44668008	    -15.45627562	    -11.63458930	     -8.75027504	      6.88845632	      1.33086073	     -3.00662558	    -14.20199201	     -3.36652993	     33.16975466	     46.12093709	      0.00000000	      0.00000000	     12.03010987	    -13.01683968	    -12.25236127	     58.94576631	     47.29458495	      0.00000000	      0.00000000
     44.92400000	     -3.89837765	     -5.09797394	     -1.17415034	      0.97855573	      0.92623247	      0.48017756	     18.35997963	      2.87922188	    -11.77664677	     18.71600537	     18.71600537	      6.21493723	     -0.74704571	     -5.16977508	     12.62078599	    -10.71626003	     -3.47499372	     50.41612635	     50.41612635	      6.64578462	    -16.16967326	    -10.89632170	     -8.82229340	      7.04299244	      1.23078624	     -1.06713642	    -14.28023416	     -3.12657494	     34.14695994	     46.07773893	      0.00000000	      0.00000000	     11.17912307	    -12.63771757	    -11.76152994	     57.45027908	     47.22579787	      0.00000000	      0.00000000
     44.93700000	     -3.76542845	     -5.19481586	     -0.78675032	      0.97804361	      0.92635961	      0.48180760	     17.85495970	      3.01578984	    -12.03525976	     18.87265200	     18.87265200	      6.65349648	     -0.89868898	     -5.36124316	     14.67529945	    -10.90003846	     -2.17184235	     54.13122686	     54.13122686	      5.76992702	    -16.33229207	     -7.99925675	     -8.92520624	      7.12722987	      1.23423416	      0.92442150	    -14.50331293	     -2.18423020	     35.00635841	     45.99352130	      0.00000000	      0.00000000	     10.94438099	    -12.30592064	    -10.86132806	     54.31563212	     47.10486641	      0.00000000	      0.00000000
     44.95000000	     -3.73214555	     -5.33423667	     -0.42360559	      0.97722320	      0.92638833	      0.48340729	     17.42463370	      3.22152625	    -12.27028592	     18.90979182	     18.90979182	      7.03878262	     -1.02627792	     -5.35761464	     16.86366440	    -11.04872445	     -0.87956972	     57.57271758	     57.57271758	      5.48279013	    -15.95417128	     -4.17098615	     -8.96424222	      7.23012861	      1.58756055	      2.76110731	    -14.84556213	     -1.08819032	     35.82329245	     45.90161972	      0.00000000	      0.00000000	     10.85217503	    -11.75223561	     -9.86641589	     51.42317894	     46.97778199	      0.00000000	      0.00000000
     44.96300000	     -3.58217438	     -5.46641407	     -0.10982259	      0.97628561	      0.92658693	      0.48495469	     16.86845302	      3.43302896	    -12.42169383	     18.92948549	     18.92948549	      7.40093504	     -1.09247807	     -5.44195712	     18.67264698	    -11.19269348	      0.18469223	     60.18179801	     60.18179801	      4.23692920	    -16.05339948	     -3.78489206	     -9.27304576	      7.27844068	      1.98394029	      4.81136324	    -15.04735708	     -1.10421015	     36.62376172	     45.88544808	      0.00000000	      0.00000000	     10.15324115	    -11.01581955	     -9.52017656	     50.64392208	     46.92998979	      0.00000000	      0.00000000
     44.97600000	     -3.68434012	     -5.54235207	      0.31788038	      0.97500686	      0.92652983	      0.48625358	     16.64720281	      3.55499036	    -12.62955790	     19.02619633	     19.02619633	      7.87046243	     -1.36650086	     -5.12223130	     20.97149418	    -11.03245650	      1.53561538	     62.76626969	     62.76626969	      5.23556564	    -15.15757939	      1.57755248	     -9.11291049	      7.28518631	      1.89511218	      6.88865636	    -15.27332536	      0.30604246	     37.28085522	     45.78774325	      0.00000000	      0.00000000	     10.29945029	    -10.81538538	     -8.33388775	     45.91303408	     46.76213054	      0.00000000	      0.00000000
     44.98900000	     -3.69669302	     -5.50546027	      0.65867809	      0.97365899	      0.92675511	      0.48748731	     16.28035299	      3.59179033	    -12.69484882	     19.00056994	     19.00056994	      8.20318956	     -1.59165972	     -5.06376058	     22.78544858	    -10.81597764	      2.45062381	     64.24819019	     64.24819019	      4.79099822	    -15.10209789	      2.33293311	     -9.22491827	      7.14170891	      1.64525422	      9.21067528	    -15.23695595	      0.38659070	     38.41597171	     45.75396413	      0.00000000	      0.00000000	      9.35383374	    -10.47521803	     -7.92506572	     44.23447035	     46.69262952	      0.00000000	      0.00000000
     45.00200000	     -3.61300708	     -5.42456081	      0.94551493	      0.97223082	      0.92722920	      0.48865740	     15.76778365	      3.59211701	    -12.72780026	     18.89981887	     18.89981887	      8.52346341	     -1.67664393	     -5.08973779	     24.33527933	    -10.58390622	      3.12830807	     65.04517106	     65.04517106	      4.50872337	    -15.06226151	      2.41553550	     -9.53033409	      6.86663623	      2.21927068	     11.14535778	    -15.53391523	      0.31927804	     39.12254713	     45.74367959	      0.00000000	      0.00000000	      8.63366579	     -9.74194655	     -7.67995907	     43.56180468	     46.65245041	      0.00000000	      0.00000000
     45.01500000	     -3.76712116	     -5.43388175	      1.37269140	      0.97054431	      0.92747865	      0.48956061	     15.51895596	      3.66199281	    -12.87370336	     18.76901578	     18.76901578	      8.89652380	     -1.95053432	     -4.62817085	     26.21474279	    -10.25683177	      4.00903140	     65.43457191	     65.43457191	      5.21107214	    -14.99348735	      4.78761582	     -9.39481190	      6.82928481	      1.88185123	     13.56370213	    -15.54527139	      1.37208133	     39.93507637	     45.67081584	      0.00000000	      0.00000000	      8.84966832	     -9.47002400	     -6.86787913	     38.26377359	     46.52552829	      0.00000000	      0.00000000
     45.02800000	     -3.83042704	     -5.35384356	      1.74460418	      0.96887249	      0.92793678	      0.49036857	     15.09239564	      3.65672701	    -12.96671770	     18.48966762	     18.48966762	      9.15176675	     -2.10135310	     -4.53442280	     27.71378257	     -9.90441924	      4.56381648	     64.93621325	     64.93621325	      5.34730139	    -15.39873977	      5.05092997	     -9.52259891	      6.60419817	      1.69422652	     15.75624758	    -15.48673666	      1.29311057	     41.20464358	     45.64044326	      0.00000000	      0.00000000	      7.81343606	     -9.11944071	     -6.65502017	     36.98807578	     46.47770128	      0.00000000	      0.00000000
     45.04100000	     -3.90181818	     -5.21514886	      2.09976358	      0.96710116	      0.92848316	      0.49105652	     14.66314986	      3.58896928	    -13.02861423	     18.18273238	     18.18273238	      9.38310089	     -2.24472349	     -4.41031307	     29.04611999	     -9.51987920	      4.89837264	     63.74342618	     63.74342618	      5.59751376	    -15.95502172	      5.38425248	     -9.68246306	      6.32620610	      1.54390750	     17.91896234	    -15.43929213	      1.30377467	     42.47122878	     45.60537583	      0.00000000	      0.00000000	      6.93523987	     -8.76950528	     -6.42753930	     35.29523271	     46.42848504	      0.00000000	      0.00000000
     45.05400000	     -4.01771728	     -5.10506902	      2.43274814	      0.96531874	      0.92892419	      0.49169536	     14.29077141	      3.54239894	    -13.14287241	     17.89451342	     17.89451342	      9.63909960	     -2.31866612	     -4.19088373	     30.26985479	     -9.23944545	      5.01511218	     61.94346011	     61.94346011	      6.09179492	    -16.46640109	      5.90783326	     -9.73600495	      6.07617093	      1.74506493	     19.74234399	    -15.70935984	      1.70573696	     44.00528507	     45.53945810	      0.00000000	      0.00000000	      6.84298252	     -8.28053854	     -6.17848706	     32.01414884	     46.38149371	      0.00000000	      0.00000000
     45.06700000	     -4.12566028	     -4.95648082	      2.77056676	      0.96352784	      0.92942268	      0.49214081	     13.83711026	      3.47079727	    -13.17745589	     17.46639646	     17.46639646	      9.82618824	     -2.43563073	     -4.09303389	     31.27016636	     -8.88982178	      5.01896873	     59.50347385	     59.50347385	      6.50036016	    -17.14262548	      6.31193448	     -9.88107183	      5.77631922	      1.75347399	     21.74556067	    -15.75513146	      1.55081144	     45.31953781	     45.51042346	      0.00000000	      0.00000000	      5.82525608	     -7.90628418	     -6.07845880	     30.97022950	     46.34787898	      0.00000000	      0.00000000
     45.08000000	     -4.27935639	     -4.87596213	      3.11401095	      0.96169552	      0.92978243	      0.49255091	     13.45341283	      3.45665693	    -13.30531829	     17.06371942	     17.06371942	      9.99201524	     -2.52628694	     -4.01347747	     32.15929597	     -8.64687003	      4.89998132	     56.55644216	     56.55644216	      7.05373243	    -17.58265289	      6.89052778	     -9.98083372	      5.57278477	      1.60934096	     23.66833375	    -15.72416495	      1.42771932	     47.02245104	     45.46532435	      0.00000000	      0.00000000	      4.92561342	     -7.60458969	     -5.97615586	     29.46583055	     46.31606014	      0.00000000	      0.00000000
     45.09300000	     -4.41720596	     -4.72762286	      3.44017162	      0.95993419	      0.93014456	      0.49279036	     13.04725799	      3.36606076	    -13.38011215	     16.67127740	     16.67127740	     10.15631231	     -2.61828185	     -3.95361219	     32.78146110	     -8.30714500	      4.66019452	     53.10492479	     53.10492479	      7.66772989	    -17.86910038	      7.48424162	    -10.07697196	      5.27381669	      1.61523913	     25.47625994	    -15.76617404	      1.25470044	     48.54988227	     45.42842261	      0.00000000	      0.00000000	      4.00562204	     -7.31400973	     -5.89212883	     28.35853945	     46.28700954	      0.00000000	      0.00000000
